<?xml version="1.0" encoding="UTF-8"?>
<svg id="Layer_1" data-name="Layer 1" xmlns="http://www.w3.org/2000/svg" viewBox="0 0 215.43 189.29">
  <defs>
    <style>
      .cls-1 {
        fill: #037171;
      }
    </style>
  </defs>
  <path class="cls-1" d="M62.41,170.55c11.2-20.2,21.6-40.9,31-62,9.5-21.2,18.2-42.7,25.9-64.6,4.3-12.3,8.4-24.7,12.2-37.1-2-.3-3.9-.5-5.9-.8-2,20-3.1,40.1-3.4,60.3-.3,18.8,0,37.7,2.9,56.3,1.4,9,3.4,17.9,6.4,26.5,2.7,7.8,6,15.5,10.7,22.2,4.3,6.2,9.9,11.9,16.8,15.1,6.7,3.1,14.3,3.8,21.3,1.4,13.4-4.6,22.6-18.2,24.5-31.9,2.4-16.6-5.6-32.5-15.6-45.2-5.2-6.6-11.2-12.6-17.3-18.2-6.4-5.9-13.2-11.5-20.1-16.8-13.7-10.4-28.4-19.5-43.8-27-15.3-7.5-31.5-14.1-48.1-18.1-15.5-3.8-32.8-5.5-47.9,.6-3.7,1.5-7.2,3.3-10.5,5.7-1.3,1-2,2.6-1.1,4.1,.8,1.3,2.8,2,4.1,1.1,12.4-9,28.1-10.1,42.9-7.8,7.8,1.2,15.5,3.2,23.1,5.7,7.8,2.5,15.5,5.5,23.1,8.7,15.3,6.7,30,14.8,43.8,24.1,13.6,9.2,26.5,19.8,38.1,31.5,10.8,11,20.8,24.1,23.4,39.7,2.1,12.7-3,26.5-13.2,34.2-4.9,3.7-10.4,5.6-16.6,4.9-6.5-.7-12.4-4.4-17-9.2-5-5.2-8.7-11.5-11.5-18.1-3.5-8-6-16.4-7.8-24.9-3.7-17.3-4.6-35.1-4.6-52.7,0-19.3,.7-38.7,2.2-58,.4-4.8,.8-9.5,1.3-14.3,.1-1.5-1.2-2.8-2.6-3-1.5-.2-2.8,.7-3.3,2.1-6.7,22-14.2,43.8-22.7,65.2-8.4,21.2-17.7,42.1-27.8,62.6-5.7,11.6-11.8,23.1-18,34.4-2,3.7,3.2,6.7,5.1,3.3h0Z"/>
  <path class="cls-1" d="M139.51,8.75c-2.6,14.5-5.1,29.1-4.9,43.9,0,1.6,1.4,3,3,3,1.8,0,2.8-1.4,3-3,1.8-16.9,8.2-33.1,18-47h-5.2c3.8,5.9,3.5,12.9,3.3,19.8-.2,7.5-.3,15,2.8,22,.5,1.1,1.9,1.6,3,1.4,1.3-.2,2.1-1,2.5-2.1,5.8-15,13.4-29.1,22.6-42.3-1.4,.4-2.7,.7-4.1,1.1,.8,.6,1.4,1.6,1.8,2.7,.5,1.6,.6,2.8,.7,4.4,.3,4.2,.2,8.5-.1,12.8-.5,8.5-1.7,16.8-2.2,25.3-.4,8.2,0,16.4,2.1,24.3,1.8,7.1,4.9,14,8.7,20.3,4.3,7.2,9.7,13.9,15.8,19.7,2.8,2.7,7-1.5,4.2-4.2-10.4-10.1-18.8-22.5-22.7-36.6-4.4-16.2-.8-32.8,.2-49.3,.3-4.6,.4-9.2-.1-13.8-.4-4.2-1.7-8.2-5.3-10.7-1.4-1-3.2-.2-4.1,1.1-9.5,13.6-17.3,28.3-23.2,43.7,1.8-.2,3.7-.5,5.5-.7-2.9-6.3-2.1-13.7-2-20.5,.2-7.3-.1-14.9-4.2-21.2-1.3-2-3.9-1.9-5.2,0-10.4,14.8-16.8,32.1-18.8,50h6c-.2-14.2,2.2-28.3,4.7-42.3,.3-1.6-.4-3.2-2.1-3.7-1.4-.6-3.4,.3-3.7,1.9h0Z"/>
</svg>